<svg width="20" height="20" viewBox="0 0 20 20" fill="none" xmlns="http://www.w3.org/2000/svg">
<path fill-rule="evenodd" clip-rule="evenodd" d="M10 1.5C5.313 1.5 1.5 5.313 1.5 10C1.5 14.687 5.313 18.5 10 18.5C14.687 18.5 18.5 14.687 18.5 10C18.5 5.313 14.687 1.5 10 1.5M10 20C4.486 20 0 15.514 0 10C0 4.486 4.486 0 10 0C15.514 0 20 4.486 20 10C20 15.514 15.514 20 10 20" fill="#04386C"/>
<path fill-rule="evenodd" clip-rule="evenodd" d="M11.4425 14.2207C11.2515 14.2207 11.0595 14.1477 10.9135 14.0017L7.42654 10.5317C7.28554 10.3907 7.20654 10.1997 7.20654 9.99968C7.20654 9.80068 7.28554 9.60968 7.42654 9.46868L10.9135 5.99768C11.2065 5.70568 11.6805 5.70568 11.9735 5.99968C12.2665 6.29368 12.2645 6.76868 11.9715 7.06068L9.01954 9.99968L11.9715 12.9397C12.2645 13.2317 12.2665 13.7057 11.9735 13.9997C11.8275 14.1477 11.6345 14.2207 11.4425 14.2207" fill="#04386C"/>
</svg>
