<svg width="26" height="14" viewBox="0 0 26 14" fill="none" xmlns="http://www.w3.org/2000/svg">
<path d="M6.67799 0.275C6.42799 0.425 5.72799 1.3 5.12799 2.25C4.10299 3.825 3.97799 3.95 2.92799 4.1C2.20299 4.225 1.55299 4.5 1.15299 4.925C0.527991 5.525 0.502991 5.7 0.502991 8.225C0.502991 9.975 0.602991 11 0.802991 11.2C0.977991 11.375 1.52799 11.5 2.05299 11.5C2.75299 11.5 3.00299 11.6 3.00299 11.9C3.00299 12.125 3.37799 12.675 3.85299 13.15C4.60299 13.9 4.85299 14 6.00299 14C7.15299 14 7.40299 13.9 8.15299 13.15C8.62799 12.675 9.00299 12.125 9.00299 11.9C9.00299 11.55 9.50299 11.5 13.003 11.5C16.503 11.5 17.003 11.55 17.003 11.9C17.003 12.125 17.378 12.675 17.853 13.15C18.603 13.9 18.853 14 20.003 14C21.153 14 21.403 13.9 22.153 13.15C22.628 12.675 23.003 12.125 23.003 11.9C23.003 11.6 23.253 11.5 23.953 11.5C24.478 11.5 25.028 11.375 25.203 11.2C25.578 10.825 25.603 6.425 25.228 5.7C24.878 5.05 23.803 4.625 21.378 4.25C19.428 3.95 19.328 3.875 18.628 2.9C18.203 2.325 17.503 1.45 17.028 0.925L16.203 -2.08616e-07H11.653C8.95299 -2.08616e-07 6.95299 0.125 6.67799 0.275ZM11.003 2.5V4H8.37799C6.92799 4 5.75299 3.95 5.75299 3.875C5.75299 3.825 6.05299 3.25 6.42799 2.625C7.22799 1.35 7.82799 1.05 9.70299 1.025L11.003 1V2.5ZM15.478 1.325C15.778 1.475 16.453 2.15 16.928 2.8L17.803 4H14.903H12.003V2.5V1H13.453C14.228 1 15.153 1.15 15.478 1.325ZM20.828 5.475C22.453 5.75 23.703 6.1 23.953 6.325C24.453 6.85 24.678 9.6 24.253 10.125C23.828 10.625 23.003 10.6 23.003 10.1C23.003 9.875 22.628 9.325 22.153 8.85C21.403 8.1 21.153 8 20.003 8C18.853 8 18.603 8.1 17.853 8.85C17.378 9.325 17.003 9.875 17.003 10.1C17.003 10.45 16.503 10.5 13.003 10.5C9.50299 10.5 9.00299 10.45 9.00299 10.1C9.00299 9.875 8.62799 9.325 8.15299 8.85C7.40299 8.1 7.15299 8 6.00299 8C4.85299 8 4.60299 8.1 3.85299 8.85C3.37799 9.325 3.00299 9.875 3.00299 10.1C3.00299 10.6 2.17799 10.625 1.75299 10.125C1.30299 9.575 1.52799 6.375 2.07799 5.825C2.70299 5.2 4.17799 5.075 11.503 5.025C16.928 5 18.628 5.1 20.828 5.475ZM7.25299 9.75C8.32799 10.825 7.52799 12.75 6.00299 12.75C5.05299 12.75 4.25299 11.95 4.25299 11C4.25299 10.05 5.05299 9.25 6.00299 9.25C6.42799 9.25 6.97799 9.475 7.25299 9.75ZM21.253 9.75C22.328 10.825 21.528 12.75 20.003 12.75C19.053 12.75 18.253 11.95 18.253 11C18.253 10.05 19.053 9.25 20.003 9.25C20.428 9.25 20.978 9.475 21.253 9.75Z" fill="black"/>
</svg>
