<svg width="25" height="25" viewBox="0 0 25 25" fill="none" xmlns="http://www.w3.org/2000/svg">
<path fill-rule="evenodd" clip-rule="evenodd" d="M12.7466 22.9735C11.3916 22.9735 10.0706 22.9585 8.7636 22.9315C7.0916 22.8985 5.9346 21.8145 5.7456 20.1025C5.4306 17.2625 4.8916 10.5685 4.8866 10.5015C4.8526 10.0885 5.1606 9.72654 5.5736 9.69354C5.9806 9.68254 6.3486 9.96854 6.3816 10.3805C6.3866 10.4485 6.9246 17.1195 7.2366 19.9375C7.3436 20.9105 7.8686 21.4125 8.7946 21.4315C11.2946 21.4845 13.8456 21.4875 16.5956 21.4375C17.5796 21.4185 18.1116 20.9265 18.2216 19.9305C18.5316 17.1365 19.0716 10.4485 19.0776 10.3805C19.1106 9.96854 19.4756 9.68054 19.8846 9.69354C20.2976 9.72754 20.6056 10.0885 20.5726 10.5015C20.5666 10.5695 20.0246 17.2805 19.7126 20.0955C19.5186 21.8425 18.3646 22.9055 16.6226 22.9375C15.2896 22.9605 14.0036 22.9735 12.7466 22.9735Z" fill="#3F79D6"/>
<path fill-rule="evenodd" clip-rule="evenodd" d="M21.208 7.96289H4.25C3.836 7.96289 3.5 7.62689 3.5 7.21289C3.5 6.79889 3.836 6.46289 4.25 6.46289H21.208C21.622 6.46289 21.958 6.79889 21.958 7.21289C21.958 7.62689 21.622 7.96289 21.208 7.96289Z" fill="#3F79D6"/>
<path fill-rule="evenodd" clip-rule="evenodd" d="M17.9403 7.96288C16.8023 7.96288 15.8143 7.15188 15.5903 6.03588L15.3473 4.81988C15.2963 4.63488 15.0853 4.47388 14.8453 4.47388H10.6123C10.3723 4.47388 10.1613 4.63488 10.1003 4.86588L9.86733 6.03588C9.64433 7.15188 8.65533 7.96288 7.51733 7.96288C7.10333 7.96288 6.76733 7.62688 6.76733 7.21288C6.76733 6.79888 7.10333 6.46288 7.51733 6.46288C7.94333 6.46288 8.31333 6.15888 8.39733 5.74088L8.64033 4.52488C8.88733 3.59288 9.69433 2.97388 10.6123 2.97388H14.8453C15.7633 2.97388 16.5703 3.59288 16.8073 4.47988L17.0613 5.74088C17.1443 6.15888 17.5143 6.46288 17.9403 6.46288C18.3543 6.46288 18.6903 6.79888 18.6903 7.21288C18.6903 7.62688 18.3543 7.96288 17.9403 7.96288Z" fill="#3F79D6"/>
</svg>
