<svg width="25" height="25" viewBox="0 0 25 25" fill="none" xmlns="http://www.w3.org/2000/svg">
<path fill-rule="evenodd" clip-rule="evenodd" d="M21.2508 22.9133H13.9978C13.5838 22.9133 13.2478 22.5773 13.2478 22.1633C13.2478 21.7493 13.5838 21.4133 13.9978 21.4133H21.2508C21.6648 21.4133 22.0008 21.7493 22.0008 22.1633C22.0008 22.5773 21.6648 22.9133 21.2508 22.9133Z" fill="#3F79D6"/>
<mask id="mask0_2301_6834" style="mask-type:luminance" maskUnits="userSpaceOnUse" x="2" y="3" width="18" height="20">
<path fill-rule="evenodd" clip-rule="evenodd" d="M2.50024 3.97388H19.6808V22.9134H2.50024V3.97388Z" fill="white"/>
</mask>
<g mask="url(#mask0_2301_6834)">
<path fill-rule="evenodd" clip-rule="evenodd" d="M13.6105 5.99052L4.19552 17.7655C4.02452 17.9795 3.96152 18.2555 4.02452 18.5205L4.70552 21.4055L7.74452 21.3675C8.03352 21.3645 8.30052 21.2355 8.47752 21.0155C11.6945 16.9905 17.8275 9.31652 18.0015 9.09152C18.1655 8.82552 18.2295 8.44952 18.1435 8.08752C18.0555 7.71652 17.8245 7.40152 17.4915 7.20052C17.4205 7.15152 15.7355 5.84352 15.6835 5.80252C15.0495 5.29452 14.1245 5.38252 13.6105 5.99052ZM4.11352 22.9135C3.76652 22.9135 3.46452 22.6755 3.38352 22.3365L2.56452 18.8655C2.39552 18.1465 2.56352 17.4045 3.02452 16.8285L12.4445 5.04652C12.4485 5.04252 12.4515 5.03752 12.4555 5.03352C13.4885 3.79852 15.3565 3.61652 16.6165 4.62752C16.6665 4.66652 18.3395 5.96652 18.3395 5.96652C18.9475 6.32852 19.4225 6.97552 19.6025 7.74152C19.7815 8.49952 19.6515 9.28152 19.2345 9.94252C19.2035 9.99152 19.1765 10.0335 9.64852 21.9535C9.18952 22.5255 8.50152 22.8585 7.76252 22.8675L4.12352 22.9135H4.11352Z" fill="#3F79D6"/>
</g>
<path fill-rule="evenodd" clip-rule="evenodd" d="M16.7234 12.6585C16.5634 12.6585 16.4034 12.6075 16.2664 12.5035L10.8144 8.3155C10.4864 8.0635 10.4244 7.5935 10.6764 7.2635C10.9294 6.9355 11.3994 6.8745 11.7284 7.1265L17.1814 11.3135C17.5094 11.5655 17.5714 12.0365 17.3184 12.3655C17.1714 12.5575 16.9484 12.6585 16.7234 12.6585Z" fill="#3F79D6"/>
</svg>
