<svg width="11" height="11" viewBox="0 0 11 11" fill="none" xmlns="http://www.w3.org/2000/svg">
<path d="M10.6797 7.14388C10.672 6.74268 10.5873 6.34389 10.4302 5.97027C10.2731 5.59666 10.0469 5.25555 9.7643 4.96644C9.48173 4.67734 9.14842 4.4459 8.78341 4.28536C8.4184 4.12482 8.02885 4.03832 7.63703 4.03081C7.35264 4.0269 7.12053 3.79129 7.11759 3.5001L7.11753 3.49672C7.1099 3.09572 7.02521 2.69711 6.86829 2.32365C6.71136 1.95018 6.48528 1.60918 6.20295 1.3201C5.92062 1.03103 5.58757 0.799551 5.22282 0.63888C4.85806 0.478209 4.46875 0.391494 4.0771 0.383686L3.84941 0.379146C3.05845 0.363376 2.306 0.669964 1.75759 1.23146C1.20919 1.79296 0.909753 2.56338 0.925156 3.37323L1.04222 9.52599L1.03958 10.2287C1.03957 10.2333 1.0432 10.2371 1.04774 10.2372C1.05221 10.2373 1.05582 10.241 1.0559 10.2456L1.05592 10.2463C1.05601 10.2513 1.06006 10.2553 1.06499 10.2553L1.70908 10.2505L7.75988 10.3711C8.55054 10.3859 9.30246 10.079 9.85067 9.51771C10.3989 8.95641 10.6986 8.18653 10.6841 7.37698L10.6797 7.14388Z" fill="#E31D28"/>
</svg>
