<svg width="25" height="24" viewBox="0 0 25 24" fill="none" xmlns="http://www.w3.org/2000/svg">
<path fill-rule="evenodd" clip-rule="evenodd" d="M24.2199 11.0421L14.4537 0.789945C14.4411 0.776745 14.4282 0.763845 14.415 0.751545C13.91 0.270668 13.2398 0.00175267 12.5425 0.000189954C11.8452 -0.00137276 11.1739 0.264536 10.6668 0.743145C10.6534 0.755545 10.6404 0.768345 10.6278 0.781545L0.773066 11.04C0.596745 11.227 0.498535 11.4743 0.498535 11.7312C0.498535 11.9882 0.596745 12.2355 0.773066 12.4224C0.858166 12.5128 0.960857 12.5849 1.07482 12.6341C1.18879 12.6833 1.31162 12.7087 1.43577 12.7087C1.55991 12.7087 1.68274 12.6833 1.79671 12.6341C1.91068 12.5849 2.01337 12.5128 2.09847 12.4224L2.84007 11.6484V20.0883C2.82036 21.1037 3.20403 22.0854 3.90697 22.8183C4.60992 23.5513 5.57479 23.9756 6.59007 23.9982H9.96447C10.2183 23.9928 10.4596 23.8868 10.6354 23.7035C10.8111 23.5203 10.9069 23.2747 10.9017 23.0208V15.0543H14.1822V23.0208C14.1769 23.2747 14.2727 23.5203 14.4485 23.7035C14.6242 23.8868 14.8655 23.9928 15.1194 23.9982H18.3999C19.4151 23.9756 20.38 23.5513 21.083 22.8183C21.7859 22.0854 22.1696 21.1037 22.1499 20.0883C22.1549 19.9621 22.1344 19.8361 22.0896 19.718C22.0448 19.5999 21.9765 19.492 21.889 19.4009C21.8014 19.3098 21.6964 19.2373 21.5802 19.1878C21.4639 19.1383 21.3389 19.1127 21.2125 19.1127C21.0862 19.1127 20.9611 19.1383 20.8449 19.1878C20.7286 19.2373 20.6236 19.3098 20.5361 19.4009C20.4485 19.492 20.3803 19.5999 20.3354 19.718C20.2906 19.8361 20.2701 19.9621 20.2752 20.0883C20.2851 20.5959 20.0933 21.0868 19.742 21.4532C19.3906 21.8197 18.9083 22.0319 18.4008 22.0434H16.0566V14.0769C16.0618 13.8231 15.966 13.5775 15.7903 13.3943C15.6145 13.211 15.3732 13.105 15.1194 13.0995H9.96447C9.71061 13.105 9.46929 13.211 9.29356 13.3943C9.11782 13.5775 9.02204 13.8231 9.02727 14.0769V22.0434H6.59007C6.0825 22.0319 5.6002 21.8197 5.24885 21.4532C4.8975 21.0868 4.70577 20.5959 4.71567 20.0883V9.72694C4.71567 9.71735 4.71567 9.70745 4.71567 9.69695L11.9301 2.18825C12.0971 2.03816 12.3139 1.95536 12.5385 1.95585C12.7631 1.95635 12.9796 2.04012 13.146 2.19095L20.2743 9.67415V15.201C20.2692 15.3273 20.2897 15.4533 20.3346 15.5714C20.3794 15.6895 20.4476 15.7974 20.5351 15.8885C20.6227 15.9796 20.7277 16.0521 20.844 16.1016C20.9602 16.1511 21.0853 16.1766 21.2116 16.1766C21.338 16.1766 21.463 16.1511 21.5793 16.1016C21.6955 16.0521 21.8005 15.9796 21.8881 15.8885C21.9756 15.7974 22.0439 15.6895 22.0887 15.5714C22.1335 15.4533 22.154 15.3273 22.149 15.201V11.6418L22.89 12.4197C22.9748 12.5104 23.0772 12.5828 23.191 12.6324C23.3048 12.682 23.4276 12.7078 23.5517 12.7083C23.6758 12.7087 23.7988 12.6837 23.9129 12.6349C24.027 12.586 24.13 12.5143 24.2154 12.4242C24.3922 12.2379 24.4912 11.991 24.492 11.7341C24.4928 11.4772 24.3955 11.2297 24.2199 11.0421Z" fill="#B0C1CF"/>
</svg>
