<svg width="14" height="15" viewBox="0 0 14 15" fill="none" xmlns="http://www.w3.org/2000/svg">
<g opacity="0.3">
<path d="M11.6667 6.33332C11.6667 9.83332 7.00004 13.3333 7.00004 13.3333C7.00004 13.3333 2.33337 9.83332 2.33337 6.33332C2.33337 5.09565 2.82504 3.90866 3.70021 3.03349C4.57538 2.15832 5.76236 1.66666 7.00004 1.66666C8.23772 1.66666 9.4247 2.15832 10.2999 3.03349C11.175 3.90866 11.6667 5.09565 11.6667 6.33332Z" stroke="black" stroke-width="1.25" stroke-linecap="round" stroke-linejoin="round"/>
<path d="M7 8.08334C7.9665 8.08334 8.75 7.29984 8.75 6.33334C8.75 5.36685 7.9665 4.58334 7 4.58334C6.0335 4.58334 5.25 5.36685 5.25 6.33334C5.25 7.29984 6.0335 8.08334 7 8.08334Z" stroke="black" stroke-width="1.25" stroke-linecap="round" stroke-linejoin="round"/>
</g>
</svg>
