<svg width="48" height="63" viewBox="0 0 48 63" fill="none" xmlns="http://www.w3.org/2000/svg">
<rect x="22" y="39" width="3" height="24" rx="1.5" fill="black"/>
<g clip-path="url(#clip0_3038_1797)">
<rect x="4" y="4" width="40" height="40" rx="20" fill="#DBE2FD"/>
<g clip-path="url(#clip1_3038_1797)">
<path d="M29.1817 14.1269C28.6836 14.3613 28.2832 14.9082 28.0586 15.6797C26.7012 20.416 24.2207 23.3848 20.6172 24.5762C19.4258 24.9766 18.4004 25.1328 16.3399 25.2305C14.2012 25.3379 13.2149 25.4453 12.1211 25.7285C7.91212 26.7832 5.11915 29.3223 4.23048 32.8965C3.53712 35.6699 4.3672 38.1601 7.209 41.7832C8.93751 43.9805 9.61134 44.5762 10.4317 44.5859L10.8711 44.5957V45.123C10.8711 45.4062 10.6953 49.3808 10.4805 53.9414C10.1777 60.3086 10.1094 62.3301 10.1875 62.6328C10.3145 63.1113 10.7539 63.6289 11.2031 63.8437C11.6719 64.0683 12.5508 64.0488 13.0293 63.8047C13.4785 63.5703 13.9473 62.9648 14.0352 62.5156C14.084 62.2324 16.1445 44.8496 16.1445 44.7129C16.1445 44.6836 16.2715 44.664 16.4277 44.664C16.6914 44.664 16.7207 44.6933 16.7793 45.084C16.8086 45.3086 17.2676 49.2246 17.8047 53.7949C18.332 58.3555 18.8203 62.291 18.8789 62.5351C19.1035 63.4531 19.8164 64 20.7832 64C21.4668 64 21.877 63.834 22.2676 63.3848C22.8535 62.7207 22.8535 63.2383 22.3067 51.832C21.8184 41.7148 21.8086 41.207 21.8086 35.3769V29.3613L22.5215 29.0879C26.4961 27.5644 29.5039 24.4199 31.0762 20.1523C31.6719 18.541 32.1211 16.207 31.9746 15.543C31.75 14.5762 31.1348 14.0683 30.1192 14.0293C29.7285 14.0098 29.3574 14.0488 29.1817 14.1269ZM11.0469 37.75L11.0176 39.918L10.5195 39.1367C9.3965 37.4082 8.92775 36.4707 8.67384 35.5039C8.35158 34.3027 9.17189 32.6426 10.5781 31.6172L11.0176 31.2949L11.0469 33.4433C11.0567 34.6152 11.0567 36.5586 11.0469 37.75Z" fill="black"/>
<path d="M15.0703 15.7383C13.4883 16.334 12.4336 17.5254 12.1406 19.0684C12.0039 19.8008 12.0137 20.2793 12.1992 21.0019C12.7461 23.1894 14.836 24.5762 17.0821 24.2637C19.6309 23.9023 21.3399 21.3535 20.6856 18.8535C20.2949 17.3496 19.2793 16.2461 17.8242 15.748C17.1309 15.5039 15.7051 15.5039 15.0703 15.7383Z" fill="black"/>
</g>
</g>
<rect x="2" y="2" width="44" height="44" rx="22" stroke="white" stroke-width="4"/>
<defs>
<clipPath id="clip0_3038_1797">
<rect x="4" y="4" width="40" height="40" rx="20" fill="white"/>
</clipPath>
<clipPath id="clip1_3038_1797">
<rect width="50" height="50" fill="white" transform="translate(-7 14)"/>
</clipPath>
</defs>
</svg>
