<svg width="26" height="24" viewBox="0 0 26 24" fill="none" xmlns="http://www.w3.org/2000/svg">
<path fill-rule="evenodd" clip-rule="evenodd" d="M25.1134 12.3465C25.1207 12.5617 24.9454 12.7363 24.73 12.7363C24.5147 12.7363 24.3409 12.5617 24.3331 12.3465C24.271 10.6352 23.8008 8.96154 22.9595 7.46583C22.0543 5.85671 20.75 4.50783 19.1722 3.54916C17.5943 2.59048 15.7962 2.05432 13.951 1.99234C12.1058 1.93036 10.2757 2.34465 8.63714 3.19528C6.99854 4.04592 5.60663 5.30423 4.59553 6.84898C3.58442 8.39373 2.9882 10.1729 2.86431 12.0149C2.74042 13.857 3.09303 15.6999 3.88817 17.3662C4.58355 18.8234 5.59688 20.1024 6.85013 21.111V15.9322C6.85013 15.6561 7.07399 15.4322 7.35013 15.4322C7.62628 15.4322 7.85013 15.6561 7.85013 15.9322V22.2935V22.7935H7.35013H1.38641C1.11027 22.7935 0.886414 22.5697 0.886414 22.2935C0.886414 22.0174 1.11027 21.7935 1.38641 21.7935H6.45536C5.06775 20.7005 3.94753 19.3013 3.18437 17.702C2.33155 15.9149 1.95335 13.9383 2.08623 11.9626C2.21911 9.9869 2.85859 8.07871 3.94304 6.4219C5.02749 4.76509 6.52037 3.4155 8.27784 2.50315C10.0353 1.59081 11.9981 1.14647 13.9772 1.21295C15.9562 1.27943 17.8848 1.85448 19.5771 2.8827C21.2694 3.91092 22.6683 5.35765 23.6392 7.0835C24.5462 8.69595 25.051 10.5013 25.1134 12.3465Z" fill="black"/>
<path d="M25.1134 12.3465L25.6131 12.3296L25.1134 12.3465ZM24.3331 12.3465L23.8334 12.3646L24.3331 12.3465ZM22.9595 7.46583L22.5237 7.71097V7.71097L22.9595 7.46583ZM19.1722 3.54916L18.9125 3.97647L19.1722 3.54916ZM13.951 1.99234L13.9342 2.49206L13.951 1.99234ZM8.63714 3.19528L8.40677 2.75151L8.63714 3.19528ZM4.59553 6.84898L4.17718 6.57515L4.59553 6.84898ZM2.86431 12.0149L3.36318 12.0485L2.86431 12.0149ZM3.88817 17.3662L4.33943 17.1508L3.88817 17.3662ZM6.85013 21.111L6.53665 21.5006L7.35013 22.1552V21.111H6.85013ZM7.85013 22.7935V23.2935H8.35013V22.7935H7.85013ZM6.45536 21.7935V22.2935H7.8981L6.76476 21.4008L6.45536 21.7935ZM3.18437 17.702L2.73312 17.9174L3.18437 17.702ZM2.08623 11.9626L2.58511 11.9962L2.08623 11.9626ZM3.94304 6.4219L3.52469 6.14807L3.94304 6.4219ZM8.27784 2.50315L8.04747 2.05939L8.27784 2.50315ZM13.9772 1.21295L13.994 0.713234L13.9772 1.21295ZM19.5771 2.8827L19.8367 2.45539V2.45539L19.5771 2.8827ZM23.6392 7.0835L23.2034 7.32864V7.32864L23.6392 7.0835ZM24.73 13.2363C25.2169 13.2363 25.6303 12.8385 25.6131 12.3296L24.6137 12.3634C24.611 12.2849 24.6739 12.2363 24.73 12.2363V13.2363ZM23.8334 12.3646C23.8505 12.837 24.2341 13.2363 24.73 13.2363V12.2363C24.7954 12.2363 24.8312 12.2863 24.8327 12.3283L23.8334 12.3646ZM22.5237 7.71097C23.3259 9.13711 23.7742 10.733 23.8334 12.3646L24.8327 12.3283C24.7678 10.5375 24.2758 8.78597 23.3953 7.2207L22.5237 7.71097ZM18.9125 3.97647C20.417 4.89055 21.6606 6.17669 22.5237 7.71097L23.3953 7.2207C22.448 5.53673 21.083 4.12511 19.4318 3.12185L18.9125 3.97647ZM13.9342 2.49206C15.6936 2.55116 17.4081 3.06238 18.9125 3.97647L19.4318 3.12185C17.7806 2.11858 15.8988 1.55749 13.9678 1.49263L13.9342 2.49206ZM8.86751 3.63905C10.4299 2.82798 12.1748 2.43296 13.9342 2.49206L13.9678 1.49263C12.0368 1.42776 10.1216 1.86132 8.40677 2.75151L8.86751 3.63905ZM5.01388 7.12281C5.97795 5.64991 7.30512 4.45012 8.86751 3.63905L8.40677 2.75151C6.69196 3.64171 5.23531 4.95855 4.17718 6.57515L5.01388 7.12281ZM3.36318 12.0485C3.48131 10.2921 4.0498 8.59571 5.01388 7.12281L4.17718 6.57515C3.11904 8.19175 2.49509 10.0536 2.36543 11.9814L3.36318 12.0485ZM4.33943 17.1508C3.58126 15.5621 3.24505 13.8049 3.36318 12.0485L2.36543 11.9814C2.23578 13.9091 2.60479 15.8378 3.43692 17.5815L4.33943 17.1508ZM7.16362 20.7215C5.96866 19.7598 5.00246 18.5402 4.33943 17.1508L3.43692 17.5815C4.16465 19.1065 5.22511 20.445 6.53665 21.5006L7.16362 20.7215ZM7.35013 21.111V15.9322H6.35013V21.111H7.35013ZM7.35013 15.9322V14.9322C6.79785 14.9322 6.35013 15.3799 6.35013 15.9322H7.35013ZM7.35013 15.9322H8.35013C8.35013 15.3799 7.90242 14.9322 7.35013 14.9322V15.9322ZM7.35013 15.9322V22.2935H8.35013V15.9322H7.35013ZM7.35013 22.2935V22.7935H8.35013V22.2935H7.35013ZM7.85013 22.2935H7.35013V23.2935H7.85013V22.2935ZM7.35013 22.2935H1.38641V23.2935H7.35013V22.2935ZM1.38641 22.2935H0.386414C0.386414 22.8458 0.83413 23.2935 1.38641 23.2935V22.2935ZM1.38641 22.2935V21.2935C0.834129 21.2935 0.386414 21.7412 0.386414 22.2935H1.38641ZM1.38641 22.2935H6.45536V21.2935H1.38641V22.2935ZM2.73312 17.9174C3.52938 19.5859 4.69817 21.0458 6.14595 22.1863L6.76476 21.4008C5.43733 20.3551 4.36569 19.0166 3.63563 17.4867L2.73312 17.9174ZM1.58736 11.929C1.44872 13.9904 1.84331 16.0528 2.73312 17.9174L3.63563 17.4867C2.81978 15.7771 2.45799 13.8862 2.58511 11.9962L1.58736 11.929ZM3.52469 6.14807C2.39321 7.87673 1.726 9.86767 1.58736 11.929L2.58511 11.9962C2.71222 10.1061 3.32397 8.28069 4.36139 6.69573L3.52469 6.14807ZM8.04747 2.05939C6.21379 3.01129 4.65617 4.41941 3.52469 6.14807L4.36139 6.69573C5.39882 5.11077 6.82696 3.8197 8.50821 2.94692L8.04747 2.05939ZM13.994 0.713234C11.9291 0.643874 9.88115 1.10748 8.04747 2.05939L8.50821 2.94692C10.1895 2.07414 12.0672 1.64908 13.9604 1.71267L13.994 0.713234ZM19.8367 2.45539C18.071 1.38258 16.0588 0.782594 13.994 0.713234L13.9604 1.71267C15.8536 1.77626 17.6986 2.32638 19.3175 3.31001L19.8367 2.45539ZM24.0749 6.83836C23.062 5.03767 21.6024 3.5282 19.8367 2.45539L19.3175 3.31001C20.9364 4.29364 22.2746 5.67763 23.2034 7.32864L24.0749 6.83836ZM25.6131 12.3296C25.548 10.4043 25.0213 8.52074 24.0749 6.83836L23.2034 7.32864C24.0711 8.87116 24.5539 10.5982 24.6137 12.3634L25.6131 12.3296Z" fill="black"/>
</svg>
